<?xml version="1.0" encoding="iso-8859-1"?>
<!-- Generator: Adobe Illustrator 19.0.0, SVG Export Plug-In . SVG Version: 6.00 Build 0)  -->
<svg version="1.1" id="Layer_1" xmlns="http://www.w3.org/2000/svg" xmlns:xlink="http://www.w3.org/1999/xlink" x="0px" y="0px"
	 viewBox="0 0 512 512" style="enable-background:new 0 0 512 512;" xml:space="preserve">
<g>
	<g>
		<g>
			<path d="M469.333,304.232V85.333c0-23.531-19.146-42.667-42.667-42.667h-64v-32C362.667,4.771,357.896,0,352,0
				c-5.896,0-10.667,4.771-10.667,10.667v32h-192v-32C149.333,4.771,144.563,0,138.667,0C132.771,0,128,4.771,128,10.667v32H42.667
				C19.146,42.667,0,61.802,0,85.333v341.333c0,23.531,19.146,42.667,42.667,42.667H304.23C325.772,495.376,358.316,512,394.667,512
				C459.354,512,512,459.365,512,394.667C512,358.313,495.374,325.77,469.333,304.232z M21.333,85.333
				C21.333,73.573,30.896,64,42.667,64H128v21.333c-11.771,0-21.333,9.573-21.333,21.333c0,11.76,9.563,21.333,21.333,21.333
				s21.333-9.573,21.333-21.333V64h192v21.333c-11.771,0-21.333,9.573-21.333,21.333c0,11.76,9.563,21.333,21.333,21.333
				c11.771,0,21.333-9.573,21.333-21.333V64h64C438.438,64,448,73.573,448,85.333v64H21.333V85.333z M42.667,448
				c-11.771,0-21.333-9.573-21.333-21.333v-256H448v119.621c-16.023-8.223-34.121-12.954-53.333-12.954
				c-64.688,0-117.333,52.635-117.333,117.333c0,19.212,4.733,37.31,12.954,53.333H42.667z M394.667,490.667
				c-52.938,0-96-43.063-96-96s43.063-96,96-96s96,43.063,96,96S447.604,490.667,394.667,490.667z"/>
			<path d="M368.583,382.208c4.896-3.271,6.229-9.885,2.958-14.792c-3.313-4.938-9.938-6.219-14.792-2.958l-9.896,6.604
				c8.708-17.604,26.875-29.729,47.813-29.729c17.75,0,34.271,8.792,44.229,23.521c3.313,4.885,9.938,6.156,14.813,2.865
				c4.875-3.292,6.167-9.927,2.854-14.802C442.646,332.302,419.5,320,394.667,320C353.5,320,320,353.5,320,394.667
				c0,3.938,2.167,7.552,5.625,9.406c1.583,0.844,3.313,1.26,5.042,1.26c2.063,0,4.125-0.604,5.917-1.792L368.583,382.208z"/>
			<path d="M463.708,385.26c-3.458-1.844-7.667-1.656-10.958,0.531l-32,21.333c-4.896,3.271-6.229,9.885-2.958,14.792
				s9.896,6.177,14.792,2.958l9.896-6.604C433.771,435.875,415.604,448,394.667,448c-17.75,0-34.271-8.792-44.229-23.521
				c-3.292-4.896-9.958-6.146-14.813-2.865c-4.875,3.292-6.167,9.927-2.854,14.802c13.917,20.615,37.063,32.917,61.896,32.917
				c41.167,0,74.667-33.5,74.667-74.667C469.333,390.729,467.167,387.115,463.708,385.26z"/>
		</g>
	</g>
</g>
<g>
</g>
<g>
</g>
<g>
</g>
<g>
</g>
<g>
</g>
<g>
</g>
<g>
</g>
<g>
</g>
<g>
</g>
<g>
</g>
<g>
</g>
<g>
</g>
<g>
</g>
<g>
</g>
<g>
</g>
</svg>
